<mxfile host="app.diagrams.net" modified="2023-10-25T11:58:57.176Z" agent="Mozilla/5.0 (Windows NT 10.0; Win64; x64) AppleWebKit/537.36 (KHTML, like Gecko) Chrome/118.0.0.0 Safari/537.36" etag="9bCCGjLB4WEiTI-_jCjw" version="22.0.7" type="device">
  <diagram name="Trang-1" id="I6vSAnG0Z0liUHzIv_t6">
    <mxGraphModel dx="1720" dy="1912" grid="1" gridSize="10" guides="1" tooltips="1" connect="1" arrows="1" fold="1" page="1" pageScale="1" pageWidth="827" pageHeight="1169" math="0" shadow="0">
      <root>
        <mxCell id="0" />
        <mxCell id="1" parent="0" />
        <mxCell id="HKH86jLXmNXEuIbAaIBr-1" value="Products" style="whiteSpace=wrap;html=1;align=center;" parent="1" vertex="1">
          <mxGeometry x="230" y="120" width="100" height="40" as="geometry" />
        </mxCell>
        <mxCell id="HKH86jLXmNXEuIbAaIBr-2" value="Customers" style="whiteSpace=wrap;html=1;align=center;" parent="1" vertex="1">
          <mxGeometry x="540" y="-50" width="100" height="40" as="geometry" />
        </mxCell>
        <mxCell id="HKH86jLXmNXEuIbAaIBr-3" value="Bills" style="whiteSpace=wrap;html=1;align=center;" parent="1" vertex="1">
          <mxGeometry x="850" y="120" width="100" height="40" as="geometry" />
        </mxCell>
        <mxCell id="HKH86jLXmNXEuIbAaIBr-4" value="Warehouse" style="whiteSpace=wrap;html=1;align=center;" parent="1" vertex="1">
          <mxGeometry x="540" y="290" width="100" height="40" as="geometry" />
        </mxCell>
        <mxCell id="HKH86jLXmNXEuIbAaIBr-5" value="product_id" style="ellipse;whiteSpace=wrap;html=1;align=center;fontStyle=4;" parent="1" vertex="1">
          <mxGeometry x="60" width="100" height="40" as="geometry" />
        </mxCell>
        <mxCell id="HKH86jLXmNXEuIbAaIBr-7" value="product_name" style="ellipse;whiteSpace=wrap;html=1;align=center;" parent="1" vertex="1">
          <mxGeometry x="60" y="60" width="100" height="40" as="geometry" />
        </mxCell>
        <mxCell id="HKH86jLXmNXEuIbAaIBr-8" value="description" style="ellipse;whiteSpace=wrap;html=1;align=center;" parent="1" vertex="1">
          <mxGeometry x="60" y="120" width="100" height="40" as="geometry" />
        </mxCell>
        <mxCell id="HKH86jLXmNXEuIbAaIBr-9" value="price" style="ellipse;whiteSpace=wrap;html=1;align=center;" parent="1" vertex="1">
          <mxGeometry x="60" y="180" width="100" height="40" as="geometry" />
        </mxCell>
        <mxCell id="HKH86jLXmNXEuIbAaIBr-11" value="&lt;u&gt;customer_id&lt;/u&gt;" style="ellipse;whiteSpace=wrap;html=1;align=center;" parent="1" vertex="1">
          <mxGeometry x="340" y="-160" width="100" height="40" as="geometry" />
        </mxCell>
        <mxCell id="HKH86jLXmNXEuIbAaIBr-12" value="name" style="ellipse;whiteSpace=wrap;html=1;align=center;" parent="1" vertex="1">
          <mxGeometry x="480" y="-160" width="100" height="40" as="geometry" />
        </mxCell>
        <mxCell id="HKH86jLXmNXEuIbAaIBr-13" value="first_name" style="ellipse;whiteSpace=wrap;html=1;align=center;" parent="1" vertex="1">
          <mxGeometry x="420" y="-240" width="100" height="40" as="geometry" />
        </mxCell>
        <mxCell id="HKH86jLXmNXEuIbAaIBr-14" value="last_name" style="ellipse;whiteSpace=wrap;html=1;align=center;" parent="1" vertex="1">
          <mxGeometry x="560" y="-240" width="100" height="40" as="geometry" />
        </mxCell>
        <mxCell id="HKH86jLXmNXEuIbAaIBr-16" value="total_amount" style="ellipse;whiteSpace=wrap;html=1;align=center;dashed=1;" parent="1" vertex="1">
          <mxGeometry x="1040" y="200" width="100" height="40" as="geometry" />
        </mxCell>
        <mxCell id="HKH86jLXmNXEuIbAaIBr-18" value="&lt;u&gt;order_id&lt;/u&gt;" style="ellipse;whiteSpace=wrap;html=1;align=center;" parent="1" vertex="1">
          <mxGeometry x="1040" y="40" width="100" height="40" as="geometry" />
        </mxCell>
        <mxCell id="HKH86jLXmNXEuIbAaIBr-19" value="order_date" style="ellipse;whiteSpace=wrap;html=1;align=center;" parent="1" vertex="1">
          <mxGeometry x="1040" y="120" width="100" height="40" as="geometry" />
        </mxCell>
        <mxCell id="HKH86jLXmNXEuIbAaIBr-21" value="&lt;u&gt;warehouse_id&lt;/u&gt;" style="ellipse;whiteSpace=wrap;html=1;align=center;" parent="1" vertex="1">
          <mxGeometry x="420" y="370" width="100" height="40" as="geometry" />
        </mxCell>
        <mxCell id="HKH86jLXmNXEuIbAaIBr-24" value="" style="endArrow=none;html=1;rounded=0;exitX=1;exitY=0.5;exitDx=0;exitDy=0;entryX=0.25;entryY=0;entryDx=0;entryDy=0;" parent="1" source="HKH86jLXmNXEuIbAaIBr-5" target="HKH86jLXmNXEuIbAaIBr-1" edge="1">
          <mxGeometry relative="1" as="geometry">
            <mxPoint x="560" y="90" as="sourcePoint" />
            <mxPoint x="720" y="90" as="targetPoint" />
          </mxGeometry>
        </mxCell>
        <mxCell id="HKH86jLXmNXEuIbAaIBr-25" value="" style="endArrow=none;html=1;rounded=0;exitX=1;exitY=0.5;exitDx=0;exitDy=0;entryX=0;entryY=0;entryDx=0;entryDy=0;" parent="1" source="HKH86jLXmNXEuIbAaIBr-7" target="HKH86jLXmNXEuIbAaIBr-1" edge="1">
          <mxGeometry relative="1" as="geometry">
            <mxPoint x="390" y="110" as="sourcePoint" />
            <mxPoint x="720" y="90" as="targetPoint" />
          </mxGeometry>
        </mxCell>
        <mxCell id="HKH86jLXmNXEuIbAaIBr-26" value="" style="endArrow=none;html=1;rounded=0;exitX=1;exitY=0.5;exitDx=0;exitDy=0;entryX=0;entryY=0.5;entryDx=0;entryDy=0;" parent="1" source="HKH86jLXmNXEuIbAaIBr-8" target="HKH86jLXmNXEuIbAaIBr-1" edge="1">
          <mxGeometry relative="1" as="geometry">
            <mxPoint x="560" y="90" as="sourcePoint" />
            <mxPoint x="720" y="90" as="targetPoint" />
          </mxGeometry>
        </mxCell>
        <mxCell id="HKH86jLXmNXEuIbAaIBr-27" value="" style="endArrow=none;html=1;rounded=0;exitX=1;exitY=0.5;exitDx=0;exitDy=0;entryX=0;entryY=1;entryDx=0;entryDy=0;" parent="1" source="HKH86jLXmNXEuIbAaIBr-9" target="HKH86jLXmNXEuIbAaIBr-1" edge="1">
          <mxGeometry relative="1" as="geometry">
            <mxPoint x="560" y="90" as="sourcePoint" />
            <mxPoint x="720" y="90" as="targetPoint" />
          </mxGeometry>
        </mxCell>
        <mxCell id="HKH86jLXmNXEuIbAaIBr-29" value="" style="endArrow=none;html=1;rounded=0;exitX=0.5;exitY=1;exitDx=0;exitDy=0;entryX=0;entryY=0;entryDx=0;entryDy=0;" parent="1" source="HKH86jLXmNXEuIbAaIBr-11" target="HKH86jLXmNXEuIbAaIBr-2" edge="1">
          <mxGeometry relative="1" as="geometry">
            <mxPoint x="560" y="90" as="sourcePoint" />
            <mxPoint x="720" y="90" as="targetPoint" />
          </mxGeometry>
        </mxCell>
        <mxCell id="HKH86jLXmNXEuIbAaIBr-30" value="" style="endArrow=none;html=1;rounded=0;exitX=0.5;exitY=1;exitDx=0;exitDy=0;entryX=0.25;entryY=0;entryDx=0;entryDy=0;" parent="1" source="HKH86jLXmNXEuIbAaIBr-12" target="HKH86jLXmNXEuIbAaIBr-2" edge="1">
          <mxGeometry relative="1" as="geometry">
            <mxPoint x="560" y="90" as="sourcePoint" />
            <mxPoint x="720" y="90" as="targetPoint" />
          </mxGeometry>
        </mxCell>
        <mxCell id="HKH86jLXmNXEuIbAaIBr-31" value="" style="endArrow=none;html=1;rounded=0;entryX=0.75;entryY=0;entryDx=0;entryDy=0;" parent="1" target="HKH86jLXmNXEuIbAaIBr-2" edge="1">
          <mxGeometry relative="1" as="geometry">
            <mxPoint x="670" y="-120" as="sourcePoint" />
            <mxPoint x="720" y="90" as="targetPoint" />
          </mxGeometry>
        </mxCell>
        <mxCell id="HKH86jLXmNXEuIbAaIBr-32" value="" style="endArrow=none;html=1;rounded=0;exitX=1;exitY=0;exitDx=0;exitDy=0;entryX=0.5;entryY=1;entryDx=0;entryDy=0;" parent="1" source="HKH86jLXmNXEuIbAaIBr-2" target="HKH86jLXmNXEuIbAaIBr-57" edge="1">
          <mxGeometry relative="1" as="geometry">
            <mxPoint x="560" y="90" as="sourcePoint" />
            <mxPoint x="810" y="-100" as="targetPoint" />
          </mxGeometry>
        </mxCell>
        <mxCell id="HKH86jLXmNXEuIbAaIBr-33" value="" style="endArrow=none;html=1;rounded=0;exitX=0.5;exitY=1;exitDx=0;exitDy=0;entryX=0;entryY=0;entryDx=0;entryDy=0;" parent="1" source="HKH86jLXmNXEuIbAaIBr-13" target="HKH86jLXmNXEuIbAaIBr-12" edge="1">
          <mxGeometry relative="1" as="geometry">
            <mxPoint x="560" y="90" as="sourcePoint" />
            <mxPoint x="720" y="90" as="targetPoint" />
          </mxGeometry>
        </mxCell>
        <mxCell id="HKH86jLXmNXEuIbAaIBr-34" value="" style="endArrow=none;html=1;rounded=0;exitX=0.5;exitY=1;exitDx=0;exitDy=0;entryX=0.763;entryY=0.14;entryDx=0;entryDy=0;entryPerimeter=0;" parent="1" source="HKH86jLXmNXEuIbAaIBr-14" target="HKH86jLXmNXEuIbAaIBr-12" edge="1">
          <mxGeometry relative="1" as="geometry">
            <mxPoint x="560" y="90" as="sourcePoint" />
            <mxPoint x="570" y="-160" as="targetPoint" />
          </mxGeometry>
        </mxCell>
        <mxCell id="HKH86jLXmNXEuIbAaIBr-35" value="" style="endArrow=none;html=1;rounded=0;entryX=0.5;entryY=0;entryDx=0;entryDy=0;exitX=0;exitY=1;exitDx=0;exitDy=0;" parent="1" source="HKH86jLXmNXEuIbAaIBr-4" target="HKH86jLXmNXEuIbAaIBr-21" edge="1">
          <mxGeometry relative="1" as="geometry">
            <mxPoint x="240" y="260" as="sourcePoint" />
            <mxPoint x="400" y="260" as="targetPoint" />
          </mxGeometry>
        </mxCell>
        <mxCell id="HKH86jLXmNXEuIbAaIBr-36" value="" style="endArrow=none;html=1;rounded=0;entryX=0.5;entryY=0;entryDx=0;entryDy=0;exitX=1;exitY=1;exitDx=0;exitDy=0;" parent="1" source="HKH86jLXmNXEuIbAaIBr-4" target="VSXbe_3oCAJCk4VXN_k7-2" edge="1">
          <mxGeometry relative="1" as="geometry">
            <mxPoint x="240" y="260" as="sourcePoint" />
            <mxPoint x="700" y="370" as="targetPoint" />
          </mxGeometry>
        </mxCell>
        <mxCell id="HKH86jLXmNXEuIbAaIBr-37" value="" style="endArrow=none;html=1;rounded=0;exitX=1;exitY=1;exitDx=0;exitDy=0;entryX=0;entryY=0.5;entryDx=0;entryDy=0;" parent="1" source="HKH86jLXmNXEuIbAaIBr-3" target="HKH86jLXmNXEuIbAaIBr-16" edge="1">
          <mxGeometry relative="1" as="geometry">
            <mxPoint x="870" y="-70" as="sourcePoint" />
            <mxPoint x="990" y="230" as="targetPoint" />
          </mxGeometry>
        </mxCell>
        <mxCell id="HKH86jLXmNXEuIbAaIBr-38" value="" style="endArrow=none;html=1;rounded=0;exitX=0;exitY=0.5;exitDx=0;exitDy=0;entryX=1;entryY=0.5;entryDx=0;entryDy=0;exitPerimeter=0;" parent="1" source="HKH86jLXmNXEuIbAaIBr-19" target="HKH86jLXmNXEuIbAaIBr-3" edge="1">
          <mxGeometry relative="1" as="geometry">
            <mxPoint x="870" y="-70" as="sourcePoint" />
            <mxPoint x="1030" y="-70" as="targetPoint" />
          </mxGeometry>
        </mxCell>
        <mxCell id="HKH86jLXmNXEuIbAaIBr-39" value="" style="endArrow=none;html=1;rounded=0;exitX=0;exitY=0.5;exitDx=0;exitDy=0;entryX=1;entryY=0;entryDx=0;entryDy=0;" parent="1" source="HKH86jLXmNXEuIbAaIBr-18" target="HKH86jLXmNXEuIbAaIBr-3" edge="1">
          <mxGeometry relative="1" as="geometry">
            <mxPoint x="870" y="-70" as="sourcePoint" />
            <mxPoint x="1030" y="-70" as="targetPoint" />
          </mxGeometry>
        </mxCell>
        <mxCell id="HKH86jLXmNXEuIbAaIBr-40" value="Buy" style="shape=rhombus;perimeter=rhombusPerimeter;whiteSpace=wrap;html=1;align=center;" parent="1" vertex="1">
          <mxGeometry x="690" y="30" width="120" height="60" as="geometry" />
        </mxCell>
        <mxCell id="HKH86jLXmNXEuIbAaIBr-41" value="" style="endArrow=none;html=1;rounded=0;entryX=1;entryY=1;entryDx=0;entryDy=0;exitX=0;exitY=0;exitDx=0;exitDy=0;" parent="1" source="HKH86jLXmNXEuIbAaIBr-40" target="HKH86jLXmNXEuIbAaIBr-2" edge="1">
          <mxGeometry relative="1" as="geometry">
            <mxPoint x="560" y="100" as="sourcePoint" />
            <mxPoint x="720" y="100" as="targetPoint" />
          </mxGeometry>
        </mxCell>
        <mxCell id="HKH86jLXmNXEuIbAaIBr-42" value="1" style="resizable=0;html=1;whiteSpace=wrap;align=right;verticalAlign=bottom;" parent="HKH86jLXmNXEuIbAaIBr-41" connectable="0" vertex="1">
          <mxGeometry x="1" relative="1" as="geometry">
            <mxPoint x="20" as="offset" />
          </mxGeometry>
        </mxCell>
        <mxCell id="HKH86jLXmNXEuIbAaIBr-43" value="" style="endArrow=none;html=1;rounded=0;entryX=0;entryY=0;entryDx=0;entryDy=0;exitX=1;exitY=1;exitDx=0;exitDy=0;" parent="1" source="HKH86jLXmNXEuIbAaIBr-40" target="HKH86jLXmNXEuIbAaIBr-3" edge="1">
          <mxGeometry relative="1" as="geometry">
            <mxPoint x="560" y="100" as="sourcePoint" />
            <mxPoint x="720" y="100" as="targetPoint" />
          </mxGeometry>
        </mxCell>
        <mxCell id="HKH86jLXmNXEuIbAaIBr-44" value="N" style="resizable=0;html=1;whiteSpace=wrap;align=right;verticalAlign=bottom;" parent="HKH86jLXmNXEuIbAaIBr-43" connectable="0" vertex="1">
          <mxGeometry x="1" relative="1" as="geometry">
            <mxPoint y="-10" as="offset" />
          </mxGeometry>
        </mxCell>
        <mxCell id="HKH86jLXmNXEuIbAaIBr-45" value="Has" style="shape=rhombus;perimeter=rhombusPerimeter;whiteSpace=wrap;html=1;align=center;" parent="1" vertex="1">
          <mxGeometry x="510" y="110" width="120" height="60" as="geometry" />
        </mxCell>
        <mxCell id="HKH86jLXmNXEuIbAaIBr-49" value="" style="endArrow=none;html=1;rounded=0;exitX=0;exitY=0;exitDx=0;exitDy=0;" parent="1" source="HKH86jLXmNXEuIbAaIBr-51" edge="1">
          <mxGeometry relative="1" as="geometry">
            <mxPoint x="730" y="290" as="sourcePoint" />
            <mxPoint x="320" y="160" as="targetPoint" />
          </mxGeometry>
        </mxCell>
        <mxCell id="HKH86jLXmNXEuIbAaIBr-50" value="N" style="resizable=0;html=1;whiteSpace=wrap;align=right;verticalAlign=bottom;" parent="HKH86jLXmNXEuIbAaIBr-49" connectable="0" vertex="1">
          <mxGeometry x="1" relative="1" as="geometry">
            <mxPoint y="20" as="offset" />
          </mxGeometry>
        </mxCell>
        <mxCell id="HKH86jLXmNXEuIbAaIBr-51" value="Has" style="shape=rhombus;perimeter=rhombusPerimeter;whiteSpace=wrap;html=1;align=center;" parent="1" vertex="1">
          <mxGeometry x="370" y="200" width="120" height="60" as="geometry" />
        </mxCell>
        <mxCell id="HKH86jLXmNXEuIbAaIBr-52" value="" style="endArrow=none;html=1;rounded=0;exitX=1;exitY=1;exitDx=0;exitDy=0;entryX=0;entryY=0;entryDx=0;entryDy=0;" parent="1" source="HKH86jLXmNXEuIbAaIBr-51" target="HKH86jLXmNXEuIbAaIBr-4" edge="1">
          <mxGeometry relative="1" as="geometry">
            <mxPoint x="560" y="100" as="sourcePoint" />
            <mxPoint x="720" y="100" as="targetPoint" />
          </mxGeometry>
        </mxCell>
        <mxCell id="HKH86jLXmNXEuIbAaIBr-53" value="N" style="resizable=0;html=1;whiteSpace=wrap;align=right;verticalAlign=bottom;" parent="HKH86jLXmNXEuIbAaIBr-52" connectable="0" vertex="1">
          <mxGeometry x="1" relative="1" as="geometry">
            <mxPoint y="-10" as="offset" />
          </mxGeometry>
        </mxCell>
        <mxCell id="HKH86jLXmNXEuIbAaIBr-57" value="phone_number" style="ellipse;shape=doubleEllipse;margin=3;whiteSpace=wrap;html=1;align=center;" parent="1" vertex="1">
          <mxGeometry x="750" y="-160" width="100" height="40" as="geometry" />
        </mxCell>
        <mxCell id="VSXbe_3oCAJCk4VXN_k7-1" value="address" style="ellipse;whiteSpace=wrap;html=1;align=center;" parent="1" vertex="1">
          <mxGeometry x="620" y="-160" width="100" height="40" as="geometry" />
        </mxCell>
        <mxCell id="VSXbe_3oCAJCk4VXN_k7-2" value="address" style="ellipse;whiteSpace=wrap;html=1;align=center;" parent="1" vertex="1">
          <mxGeometry x="660" y="370" width="100" height="40" as="geometry" />
        </mxCell>
        <mxCell id="VSXbe_3oCAJCk4VXN_k7-3" value="name" style="ellipse;whiteSpace=wrap;html=1;align=center;" parent="1" vertex="1">
          <mxGeometry x="540" y="380" width="100" height="40" as="geometry" />
        </mxCell>
        <mxCell id="VSXbe_3oCAJCk4VXN_k7-4" value="" style="endArrow=none;html=1;rounded=0;exitX=0.5;exitY=1;exitDx=0;exitDy=0;entryX=0.5;entryY=0;entryDx=0;entryDy=0;" parent="1" source="HKH86jLXmNXEuIbAaIBr-4" target="VSXbe_3oCAJCk4VXN_k7-3" edge="1">
          <mxGeometry relative="1" as="geometry">
            <mxPoint x="590" y="310" as="sourcePoint" />
            <mxPoint x="750" y="310" as="targetPoint" />
          </mxGeometry>
        </mxCell>
        <mxCell id="VSXbe_3oCAJCk4VXN_k7-5" value="" style="endArrow=none;html=1;rounded=0;entryX=0;entryY=0.5;entryDx=0;entryDy=0;exitX=1;exitY=0.5;exitDx=0;exitDy=0;" parent="1" source="HKH86jLXmNXEuIbAaIBr-45" target="HKH86jLXmNXEuIbAaIBr-3" edge="1">
          <mxGeometry relative="1" as="geometry">
            <mxPoint x="590" y="140" as="sourcePoint" />
            <mxPoint x="750" y="140" as="targetPoint" />
          </mxGeometry>
        </mxCell>
        <mxCell id="VSXbe_3oCAJCk4VXN_k7-6" value="N" style="resizable=0;html=1;whiteSpace=wrap;align=right;verticalAlign=bottom;" parent="VSXbe_3oCAJCk4VXN_k7-5" connectable="0" vertex="1">
          <mxGeometry x="1" relative="1" as="geometry">
            <mxPoint y="50" as="offset" />
          </mxGeometry>
        </mxCell>
        <mxCell id="VSXbe_3oCAJCk4VXN_k7-7" value="" style="endArrow=none;html=1;rounded=0;exitX=0;exitY=0.5;exitDx=0;exitDy=0;entryX=1;entryY=0.5;entryDx=0;entryDy=0;" parent="1" source="HKH86jLXmNXEuIbAaIBr-45" target="HKH86jLXmNXEuIbAaIBr-1" edge="1">
          <mxGeometry relative="1" as="geometry">
            <mxPoint x="590" y="140" as="sourcePoint" />
            <mxPoint x="750" y="140" as="targetPoint" />
          </mxGeometry>
        </mxCell>
        <mxCell id="VSXbe_3oCAJCk4VXN_k7-8" value="N" style="resizable=0;html=1;whiteSpace=wrap;align=right;verticalAlign=bottom;" parent="VSXbe_3oCAJCk4VXN_k7-7" connectable="0" vertex="1">
          <mxGeometry x="1" relative="1" as="geometry">
            <mxPoint x="21" y="-10" as="offset" />
          </mxGeometry>
        </mxCell>
        <mxCell id="VSXbe_3oCAJCk4VXN_k7-9" value="quantity_buy" style="ellipse;whiteSpace=wrap;html=1;align=center;" parent="1" vertex="1">
          <mxGeometry x="340" y="40" width="100" height="40" as="geometry" />
        </mxCell>
        <mxCell id="VSXbe_3oCAJCk4VXN_k7-10" value="price_buy" style="ellipse;whiteSpace=wrap;html=1;align=center;" parent="1" vertex="1">
          <mxGeometry x="460" y="40" width="100" height="40" as="geometry" />
        </mxCell>
        <mxCell id="VSXbe_3oCAJCk4VXN_k7-12" value="" style="endArrow=none;html=1;rounded=0;exitX=0.5;exitY=1;exitDx=0;exitDy=0;entryX=0;entryY=0;entryDx=0;entryDy=0;" parent="1" source="VSXbe_3oCAJCk4VXN_k7-9" target="HKH86jLXmNXEuIbAaIBr-45" edge="1">
          <mxGeometry relative="1" as="geometry">
            <mxPoint x="610" y="140" as="sourcePoint" />
            <mxPoint x="770" y="140" as="targetPoint" />
          </mxGeometry>
        </mxCell>
        <mxCell id="VSXbe_3oCAJCk4VXN_k7-13" value="" style="endArrow=none;html=1;rounded=0;exitX=0.5;exitY=1;exitDx=0;exitDy=0;entryX=0.5;entryY=0;entryDx=0;entryDy=0;" parent="1" source="VSXbe_3oCAJCk4VXN_k7-10" target="HKH86jLXmNXEuIbAaIBr-45" edge="1">
          <mxGeometry relative="1" as="geometry">
            <mxPoint x="610" y="140" as="sourcePoint" />
            <mxPoint x="770" y="140" as="targetPoint" />
          </mxGeometry>
        </mxCell>
        <mxCell id="VSXbe_3oCAJCk4VXN_k7-15" value="quantity_in_stock" style="ellipse;whiteSpace=wrap;html=1;align=center;" parent="1" vertex="1">
          <mxGeometry x="290" y="280" width="100" height="40" as="geometry" />
        </mxCell>
        <mxCell id="VSXbe_3oCAJCk4VXN_k7-16" value="" style="endArrow=none;html=1;rounded=0;exitX=0;exitY=1;exitDx=0;exitDy=0;entryX=0.5;entryY=0;entryDx=0;entryDy=0;" parent="1" source="HKH86jLXmNXEuIbAaIBr-51" target="VSXbe_3oCAJCk4VXN_k7-15" edge="1">
          <mxGeometry relative="1" as="geometry">
            <mxPoint x="610" y="140" as="sourcePoint" />
            <mxPoint x="770" y="140" as="targetPoint" />
          </mxGeometry>
        </mxCell>
        <mxCell id="RjqxUXUyLk6jYZJQyEJS-2" value="" style="endArrow=none;html=1;rounded=0;entryX=0.5;entryY=1;entryDx=0;entryDy=0;exitX=1;exitY=0;exitDx=0;exitDy=0;" parent="1" source="HKH86jLXmNXEuIbAaIBr-45" target="RjqxUXUyLk6jYZJQyEJS-5" edge="1">
          <mxGeometry relative="1" as="geometry">
            <mxPoint x="570" y="170" as="sourcePoint" />
            <mxPoint x="620" y="190" as="targetPoint" />
          </mxGeometry>
        </mxCell>
        <mxCell id="RjqxUXUyLk6jYZJQyEJS-5" value="total_price" style="ellipse;whiteSpace=wrap;html=1;align=center;dashed=1;" parent="1" vertex="1">
          <mxGeometry x="580" y="40" width="100" height="40" as="geometry" />
        </mxCell>
        <mxCell id="CpPoiTR2_dn6H4p_IPDt-1" value="" style="endArrow=none;html=1;rounded=0;exitX=0.5;exitY=1;exitDx=0;exitDy=0;entryX=0.5;entryY=0;entryDx=0;entryDy=0;" edge="1" parent="1" source="HKH86jLXmNXEuIbAaIBr-45" target="HKH86jLXmNXEuIbAaIBr-4">
          <mxGeometry relative="1" as="geometry">
            <mxPoint x="630" y="100" as="sourcePoint" />
            <mxPoint x="790" y="100" as="targetPoint" />
          </mxGeometry>
        </mxCell>
        <mxCell id="CpPoiTR2_dn6H4p_IPDt-2" value="1" style="resizable=0;html=1;whiteSpace=wrap;align=right;verticalAlign=bottom;" connectable="0" vertex="1" parent="CpPoiTR2_dn6H4p_IPDt-1">
          <mxGeometry x="1" relative="1" as="geometry">
            <mxPoint x="20" y="-10" as="offset" />
          </mxGeometry>
        </mxCell>
      </root>
    </mxGraphModel>
  </diagram>
</mxfile>
